<svg id="svg" version="1.1" xmlns="http://www.w3.org/2000/svg" xmlns:xlink="http://www.w3.org/1999/xlink" width="400" height="400" viewBox="0, 0, 400,400"><g id="svgg"><path id="path0" d="M52.271 108.262 C 52.122 108.411,52.000 144.505,52.000 188.471 L 52.000 268.409 67.900 268.305 L 83.800 268.200 83.800 188.200 L 83.800 108.200 68.171 108.095 C 59.575 108.038,52.420 108.113,52.271 108.262 M119.398 108.465 C 119.286 108.759,119.241 144.820,119.297 188.600 L 119.400 268.200 148.800 268.200 C 171.418 268.200,178.516 268.084,179.568 267.697 C 180.320 267.421,182.480 267.077,184.368 266.935 C 186.256 266.792,188.160 266.453,188.600 266.182 C 189.040 265.912,190.120 265.568,191.000 265.419 C 192.588 265.150,193.765 264.679,198.000 262.619 C 200.930 261.193,202.019 260.577,203.125 259.718 C 204.168 258.909,209.545 254.015,210.067 253.400 C 211.280 251.972,213.512 248.840,213.915 248.000 C 214.421 246.943,214.951 246.038,216.021 244.400 C 216.381 243.850,216.798 242.743,216.948 241.940 C 217.098 241.137,217.486 240.260,217.811 239.991 C 218.135 239.722,218.400 239.139,218.400 238.695 C 218.400 238.251,218.740 237.148,219.155 236.244 C 219.571 235.340,220.097 233.700,220.324 232.600 C 220.551 231.500,220.921 229.880,221.146 229.000 C 222.185 224.930,223.065 219.863,223.578 215.000 C 223.811 212.800,224.170 210.100,224.376 209.000 C 224.864 206.404,224.867 165.618,224.380 163.000 C 224.175 161.900,223.814 159.290,223.577 157.200 C 223.151 153.434,222.839 151.570,222.023 147.900 C 221.790 146.855,221.431 145.235,221.225 144.300 C 220.501 141.014,219.894 138.984,219.151 137.356 C 218.738 136.452,218.399 135.462,218.397 135.156 C 218.396 134.850,218.037 134.060,217.600 133.400 C 217.163 132.740,216.804 131.823,216.803 131.362 C 216.801 130.901,216.440 130.198,216.000 129.800 C 215.560 129.402,215.200 128.847,215.200 128.567 C 215.200 128.286,214.971 127.819,214.691 127.529 C 214.411 127.238,213.500 125.963,212.666 124.695 C 211.024 122.198,207.341 118.400,205.009 116.800 C 204.208 116.250,203.337 115.606,203.073 115.368 C 202.506 114.858,200.750 113.880,198.800 112.989 C 198.030 112.638,196.833 112.091,196.140 111.775 C 195.446 111.459,194.631 111.200,194.329 111.200 C 194.026 111.200,193.407 110.940,192.953 110.622 C 192.500 110.305,191.155 109.920,189.964 109.768 C 188.774 109.616,187.260 109.203,186.600 108.850 C 184.932 107.958,119.733 107.584,119.398 108.465 M256.586 108.498 C 256.481 108.774,256.441 144.820,256.497 188.600 L 256.600 268.200 302.306 268.302 L 348.011 268.403 347.906 255.502 L 347.800 242.600 318.638 242.497 C 297.904 242.424,289.320 242.266,288.938 241.948 C 288.500 241.585,288.400 237.543,288.400 220.141 L 288.400 198.780 289.426 198.390 C 290.054 198.151,300.448 198.000,316.226 198.000 L 342.000 198.000 342.000 185.200 L 342.000 172.400 316.226 172.400 C 300.448 172.400,290.054 172.249,289.426 172.010 L 288.400 171.620 288.400 153.090 C 288.400 139.211,288.520 134.440,288.880 134.080 C 289.244 133.716,296.052 133.600,317.072 133.600 L 344.785 133.600 345.004 132.700 C 345.125 132.205,345.174 126.490,345.112 120.000 L 345.000 108.200 300.888 108.098 C 265.809 108.017,256.737 108.099,256.586 108.498 M173.480 131.717 C 174.184 132.093,175.084 132.406,175.480 132.413 C 177.997 132.456,185.492 138.144,186.257 140.593 C 186.396 141.037,186.845 141.829,187.255 142.354 C 187.665 142.879,188.000 143.622,188.000 144.005 C 188.000 144.388,188.265 144.922,188.589 145.191 C 188.914 145.460,189.298 146.337,189.443 147.140 C 189.588 147.943,189.943 149.067,190.231 149.637 C 190.520 150.208,190.872 151.648,191.015 152.837 C 191.157 154.027,191.518 155.990,191.815 157.200 C 193.472 163.930,193.607 213.072,191.980 217.101 C 191.780 217.597,191.418 219.667,191.176 221.701 C 190.933 223.736,190.480 225.799,190.168 226.286 C 189.855 226.773,189.600 227.563,189.600 228.042 C 189.600 228.521,189.260 229.652,188.846 230.556 C 188.431 231.460,187.883 232.650,187.630 233.200 C 185.661 237.467,181.213 241.880,178.090 242.663 C 177.495 242.813,176.797 243.146,176.538 243.405 C 176.280 243.663,174.388 244.099,172.334 244.373 C 170.280 244.647,168.078 245.036,167.440 245.236 C 165.228 245.931,152.764 245.691,151.931 244.938 C 150.992 244.088,150.764 132.209,151.700 131.245 C 152.528 130.392,171.777 130.809,173.480 131.717 " stroke="none" fill="#fbfbfc" fill-rule="evenodd"></path><path id="path1" d="M50.796 107.300 C 49.562 109.323,49.540 268.126,50.774 268.786 C 51.271 269.052,57.478 269.200,68.174 269.200 L 84.800 269.200 84.800 188.233 C 84.800 143.701,84.691 106.981,84.557 106.633 C 84.341 106.070,82.503 106.000,67.951 106.000 L 51.588 106.000 50.796 107.300 M118.643 106.633 C 118.509 106.981,118.400 143.701,118.400 188.233 L 118.400 269.200 150.610 269.200 C 181.795 269.200,182.892 269.175,185.096 268.400 C 186.348 267.960,188.099 267.594,188.986 267.587 C 189.874 267.580,190.939 267.318,191.354 267.004 C 191.769 266.690,192.908 266.313,193.886 266.166 C 194.864 266.020,195.752 265.670,195.860 265.389 C 195.967 265.108,196.682 264.761,197.449 264.617 C 198.215 264.473,198.938 264.107,199.054 263.802 C 199.171 263.498,199.804 263.131,200.460 262.987 C 201.117 262.843,201.751 262.472,201.870 262.162 C 201.988 261.853,202.353 261.600,202.680 261.600 C 204.851 261.600,216.400 248.894,216.400 246.504 C 216.400 246.281,216.648 245.892,216.952 245.640 C 217.255 245.388,217.613 244.636,217.746 243.968 C 217.880 243.300,218.262 242.481,218.595 242.148 C 218.928 241.815,219.201 241.151,219.201 240.671 C 219.202 240.192,219.562 239.211,220.001 238.490 C 220.466 237.728,220.778 236.558,220.747 235.690 C 220.696 234.230,220.689 234.224,220.429 235.400 C 220.282 236.060,219.856 237.269,219.481 238.087 C 219.107 238.905,218.800 239.839,218.800 240.164 C 218.800 240.488,218.633 240.856,218.429 240.982 C 218.225 241.108,217.845 241.859,217.583 242.651 C 215.973 247.530,209.846 255.764,205.400 259.023 C 204.520 259.668,203.710 260.286,203.600 260.398 C 202.892 261.114,200.718 262.405,199.857 262.622 C 199.293 262.763,198.623 263.131,198.367 263.439 C 198.111 263.748,197.699 264.006,197.451 264.013 C 197.203 264.019,196.100 264.468,195.000 265.009 C 193.900 265.550,192.707 265.994,192.349 265.996 C 191.991 265.998,191.091 266.250,190.349 266.556 C 189.607 266.861,188.010 267.240,186.800 267.397 C 185.590 267.554,183.617 267.934,182.416 268.241 C 180.640 268.696,174.497 268.800,149.516 268.800 L 118.800 268.800 118.800 188.433 C 118.800 144.231,118.909 107.781,119.043 107.433 C 119.710 105.694,183.180 106.771,188.771 108.616 C 189.745 108.937,190.882 109.200,191.297 109.200 C 192.814 109.200,202.823 113.668,203.560 114.675 C 203.692 114.855,204.610 115.542,205.600 116.201 C 207.626 117.550,211.267 121.100,212.293 122.726 C 212.666 123.317,213.539 124.520,214.232 125.400 C 215.651 127.200,219.200 134.232,219.200 135.243 C 219.200 135.606,219.459 136.117,219.776 136.380 C 220.093 136.643,220.426 137.340,220.516 137.929 C 220.647 138.786,220.692 138.709,220.740 137.549 C 220.774 136.732,220.557 135.897,220.244 135.637 C 219.939 135.383,219.493 134.396,219.253 133.444 C 219.013 132.491,218.543 131.485,218.208 131.207 C 217.874 130.929,217.600 130.375,217.600 129.975 C 217.600 129.575,217.417 129.134,217.194 128.996 C 216.971 128.858,216.530 128.128,216.214 127.373 C 215.899 126.618,215.471 126.000,215.264 126.000 C 215.056 126.000,214.780 125.595,214.648 125.100 C 214.517 124.605,213.691 123.390,212.812 122.400 C 208.828 117.913,207.773 116.825,207.396 116.813 C 207.174 116.806,206.768 116.440,206.493 116.000 C 206.218 115.560,205.753 115.200,205.459 115.200 C 205.165 115.200,204.598 114.840,204.200 114.400 C 203.802 113.960,203.307 113.600,203.101 113.600 C 202.895 113.600,202.269 113.240,201.709 112.800 C 201.150 112.360,200.430 112.000,200.109 112.000 C 199.789 112.000,199.069 111.640,198.509 111.200 C 197.950 110.760,197.126 110.400,196.678 110.400 C 196.230 110.400,195.541 110.109,195.148 109.753 C 194.754 109.397,193.570 109.009,192.516 108.892 C 191.462 108.775,190.240 108.446,189.800 108.161 C 189.360 107.876,187.290 107.467,185.200 107.251 C 183.110 107.036,180.590 106.674,179.600 106.447 C 176.290 105.689,118.938 105.863,118.643 106.633 M255.200 106.800 C 254.082 107.918,253.917 268.529,255.033 268.957 C 256.696 269.595,348.709 269.213,348.957 268.567 C 349.622 266.835,349.209 242.499,348.500 241.641 L 347.800 240.792 318.800 240.696 L 289.800 240.600 289.696 220.300 L 289.593 200.000 315.727 200.000 L 341.861 200.000 342.730 199.074 C 343.587 198.163,343.600 197.947,343.600 185.103 L 343.600 172.058 342.546 171.229 C 341.504 170.410,341.189 170.400,315.546 170.400 L 289.600 170.400 289.600 152.600 L 289.600 134.800 317.626 134.800 C 336.181 134.800,345.914 134.660,346.426 134.386 C 347.501 133.811,347.640 108.406,346.577 106.889 L 345.955 106.000 300.977 106.000 C 256.533 106.000,255.991 106.009,255.200 106.800 M84.157 107.433 C 84.291 107.781,84.400 144.233,84.400 188.437 L 84.400 268.809 67.900 268.704 L 51.400 268.600 51.299 188.242 C 51.225 129.178,51.317 107.741,51.648 107.342 C 52.379 106.462,83.818 106.549,84.157 107.433 M345.771 107.429 C 346.503 108.160,346.723 132.469,346.009 133.600 C 345.679 134.121,341.923 134.226,317.515 134.400 L 289.400 134.600 289.400 152.800 L 289.400 171.000 315.372 171.103 C 338.840 171.196,341.414 171.269,342.072 171.865 C 343.193 172.880,343.193 197.520,342.072 198.535 C 341.414 199.131,338.840 199.204,315.372 199.297 L 289.400 199.400 289.400 220.400 L 289.400 241.400 318.600 241.500 C 345.487 241.592,347.840 241.654,348.300 242.277 C 348.826 242.988,349.063 266.850,348.557 268.167 C 348.309 268.813,257.496 269.195,255.833 268.557 C 254.837 268.175,254.866 108.632,255.862 107.531 C 256.814 106.480,344.722 106.379,345.771 107.429 M151.900 131.825 C 151.481 132.256,151.534 242.877,151.954 243.539 C 152.616 244.584,172.858 243.998,175.600 242.856 C 182.412 240.017,184.759 237.604,188.102 230.000 C 191.583 222.084,193.432 192.791,192.003 168.200 C 191.423 158.228,190.009 150.413,187.914 145.600 C 187.578 144.830,187.236 144.014,187.152 143.786 C 185.676 139.768,177.257 132.466,175.103 133.334 C 174.799 133.457,174.877 133.549,175.300 133.568 C 175.685 133.586,176.000 133.773,176.000 133.985 C 176.000 134.196,176.701 134.558,177.559 134.789 C 178.416 135.020,179.221 135.477,179.346 135.804 C 179.472 136.132,179.806 136.399,180.087 136.397 C 180.819 136.393,185.600 141.606,185.600 142.408 C 185.600 142.775,185.960 143.402,186.400 143.800 C 186.840 144.198,187.200 144.933,187.200 145.433 C 187.200 145.934,187.448 146.591,187.752 146.895 C 188.055 147.198,188.433 148.426,188.590 149.623 C 188.747 150.821,189.103 152.160,189.380 152.600 C 189.656 153.040,190.101 155.729,190.368 158.576 C 190.635 161.423,191.021 164.066,191.227 164.450 C 191.703 165.339,191.728 209.474,191.252 209.768 C 191.061 209.886,190.691 212.641,190.429 215.891 C 190.168 219.141,189.717 222.250,189.426 222.800 C 189.136 223.350,188.776 224.815,188.626 226.055 C 188.476 227.296,188.100 228.646,187.790 229.055 C 187.479 229.465,187.220 230.181,187.213 230.646 C 187.206 231.111,186.865 231.921,186.455 232.446 C 186.045 232.971,185.583 233.807,185.427 234.304 C 185.110 235.315,180.737 240.000,180.110 240.000 C 179.889 240.000,179.279 240.334,178.754 240.742 C 178.229 241.150,177.131 241.607,176.313 241.758 C 175.495 241.908,174.556 242.301,174.227 242.631 C 173.729 243.128,171.816 243.244,162.914 243.315 L 152.200 243.400 152.099 187.700 L 151.997 132.000 159.319 132.000 C 163.551 132.000,166.805 132.165,167.031 132.391 C 167.246 132.606,169.037 132.876,171.011 132.991 L 174.600 133.200 172.400 132.571 C 170.005 131.886,152.462 131.248,151.900 131.825 M220.800 139.669 C 220.800 140.021,221.069 140.824,221.398 141.454 C 221.726 142.084,221.996 143.065,221.998 143.633 C 221.999 144.201,222.342 145.821,222.759 147.233 C 223.467 149.625,223.868 152.062,224.796 159.600 C 226.065 169.900,225.540 208.442,223.993 218.600 C 223.173 223.985,221.836 230.441,220.969 233.200 C 220.667 234.162,220.683 234.172,221.373 233.483 C 221.784 233.073,222.226 231.788,222.407 230.483 C 222.581 229.227,223.002 227.480,223.344 226.600 C 223.685 225.720,223.973 223.776,223.982 222.280 C 223.993 220.631,224.246 219.085,224.624 218.354 C 225.097 217.439,225.306 215.267,225.486 209.374 C 225.617 205.098,225.881 201.600,226.071 201.600 C 227.267 201.600,225.642 155.038,224.390 153.400 C 224.222 153.180,224.020 151.533,223.941 149.741 C 223.841 147.461,223.602 146.259,223.146 145.741 C 222.769 145.312,222.418 144.023,222.313 142.680 C 222.144 140.524,220.800 137.849,220.800 139.669 " stroke="none" fill="#6cccec" fill-rule="evenodd"></path><path id="path2" d="M0.000 200.000 L 0.000 400.000 200.000 400.000 L 400.000 400.000 400.000 200.000 L 400.000 0.000 200.000 0.000 L 0.000 0.000 0.000 200.000 M84.557 106.633 C 84.691 106.981,84.800 143.701,84.800 188.233 L 84.800 269.200 68.174 269.200 C 57.478 269.200,51.271 269.052,50.774 268.786 C 49.540 268.126,49.562 109.323,50.796 107.300 L 51.588 106.000 67.951 106.000 C 82.503 106.000,84.341 106.070,84.557 106.633 M179.600 106.447 C 180.590 106.674,183.110 107.036,185.200 107.251 C 187.290 107.467,189.360 107.876,189.800 108.161 C 190.240 108.446,191.462 108.775,192.516 108.892 C 193.570 109.009,194.754 109.397,195.148 109.753 C 195.541 110.109,196.230 110.400,196.678 110.400 C 197.126 110.400,197.950 110.760,198.509 111.200 C 199.069 111.640,199.789 112.000,200.109 112.000 C 200.430 112.000,201.150 112.360,201.709 112.800 C 202.269 113.240,202.895 113.600,203.101 113.600 C 203.307 113.600,203.802 113.960,204.200 114.400 C 204.598 114.840,205.165 115.200,205.459 115.200 C 205.753 115.200,206.218 115.560,206.493 116.000 C 206.768 116.440,207.174 116.806,207.396 116.813 C 207.773 116.825,208.828 117.913,212.812 122.400 C 213.691 123.390,214.517 124.605,214.648 125.100 C 214.780 125.595,215.056 126.000,215.264 126.000 C 215.471 126.000,215.899 126.618,216.214 127.373 C 216.530 128.128,216.971 128.858,217.194 128.996 C 217.417 129.134,217.600 129.575,217.600 129.975 C 217.600 130.375,217.874 130.929,218.208 131.207 C 218.543 131.485,219.013 132.491,219.253 133.444 C 219.493 134.396,219.939 135.383,220.244 135.637 C 220.550 135.890,220.800 136.737,220.800 137.517 C 220.800 138.298,221.100 139.269,221.468 139.675 C 221.864 140.113,222.208 141.344,222.315 142.706 C 222.419 144.027,222.771 145.314,223.146 145.741 C 223.602 146.259,223.841 147.461,223.941 149.741 C 224.020 151.533,224.222 153.180,224.390 153.400 C 225.642 155.038,227.267 201.600,226.071 201.600 C 225.881 201.600,225.617 205.098,225.486 209.374 C 225.306 215.267,225.097 217.439,224.624 218.354 C 224.246 219.085,223.993 220.631,223.982 222.280 C 223.973 223.776,223.685 225.720,223.344 226.600 C 223.002 227.480,222.581 229.227,222.407 230.483 C 222.233 231.739,221.801 233.056,221.446 233.412 C 221.072 233.785,220.800 234.715,220.800 235.619 C 220.800 236.478,220.441 237.770,220.001 238.490 C 219.562 239.211,219.202 240.192,219.201 240.671 C 219.201 241.151,218.928 241.815,218.595 242.148 C 218.262 242.481,217.880 243.300,217.746 243.968 C 217.613 244.636,217.255 245.388,216.952 245.640 C 216.648 245.892,216.400 246.281,216.400 246.504 C 216.400 248.894,204.851 261.600,202.680 261.600 C 202.353 261.600,201.988 261.853,201.870 262.162 C 201.751 262.472,201.117 262.843,200.460 262.987 C 199.804 263.131,199.171 263.498,199.054 263.802 C 198.938 264.107,198.215 264.473,197.449 264.617 C 196.682 264.761,195.967 265.108,195.860 265.389 C 195.752 265.670,194.864 266.020,193.886 266.166 C 192.908 266.313,191.769 266.690,191.354 267.004 C 190.939 267.318,189.874 267.580,188.986 267.587 C 188.099 267.594,186.348 267.960,185.096 268.400 C 182.892 269.175,181.795 269.200,150.610 269.200 L 118.400 269.200 118.400 188.233 C 118.400 143.701,118.509 106.981,118.643 106.633 C 118.938 105.863,176.290 105.689,179.600 106.447 M346.577 106.889 C 347.640 108.406,347.501 133.811,346.426 134.386 C 345.914 134.660,336.181 134.800,317.626 134.800 L 289.600 134.800 289.600 152.600 L 289.600 170.400 315.546 170.400 C 341.189 170.400,341.504 170.410,342.546 171.229 L 343.600 172.058 343.600 185.103 C 343.600 197.947,343.587 198.163,342.730 199.074 L 341.861 200.000 315.727 200.000 L 289.593 200.000 289.696 220.300 L 289.800 240.600 318.800 240.696 L 347.800 240.792 348.500 241.641 C 349.209 242.499,349.622 266.835,348.957 268.567 C 348.709 269.213,256.696 269.595,255.033 268.957 C 253.917 268.529,254.082 107.918,255.200 106.800 C 255.991 106.009,256.533 106.000,300.977 106.000 L 345.955 106.000 346.577 106.889 M152.099 187.700 L 152.200 243.400 162.914 243.315 C 171.816 243.244,173.729 243.128,174.227 242.631 C 174.556 242.301,175.495 241.908,176.313 241.758 C 177.131 241.607,178.229 241.150,178.754 240.742 C 179.279 240.334,179.889 240.000,180.110 240.000 C 180.737 240.000,185.110 235.315,185.427 234.304 C 185.583 233.807,186.045 232.971,186.455 232.446 C 186.865 231.921,187.206 231.111,187.213 230.646 C 187.220 230.181,187.479 229.465,187.790 229.055 C 188.100 228.646,188.476 227.296,188.626 226.055 C 188.776 224.815,189.136 223.350,189.426 222.800 C 189.717 222.250,190.168 219.141,190.429 215.891 C 190.691 212.641,191.061 209.886,191.252 209.768 C 191.728 209.474,191.703 165.339,191.227 164.450 C 191.021 164.066,190.635 161.423,190.368 158.576 C 190.101 155.729,189.656 153.040,189.380 152.600 C 189.103 152.160,188.747 150.821,188.590 149.623 C 188.433 148.426,188.055 147.198,187.752 146.895 C 187.448 146.591,187.200 145.934,187.200 145.433 C 187.200 144.933,186.840 144.198,186.400 143.800 C 185.960 143.402,185.600 142.775,185.600 142.408 C 185.600 141.672,180.847 136.393,180.189 136.397 C 179.963 136.399,179.470 136.040,179.093 135.600 C 178.716 135.160,178.059 134.800,177.632 134.800 C 177.206 134.800,176.560 134.503,176.198 134.140 C 175.732 133.675,174.338 133.373,171.469 133.115 C 169.231 132.914,167.229 132.581,167.020 132.375 C 166.811 132.169,163.345 132.000,159.319 132.000 L 151.997 132.000 152.099 187.700 " stroke="none" fill="#3cb4e4" fill-rule="evenodd"></path><path id="path3" d="M51.680 107.280 C 51.134 107.826,50.955 268.201,51.500 268.538 C 51.665 268.640,51.751 232.786,51.690 188.862 C 51.630 144.938,51.678 108.595,51.798 108.100 L 52.015 107.200 67.788 107.200 C 82.371 107.200,83.594 107.253,84.010 107.900 C 84.431 108.554,84.445 108.552,84.230 107.867 C 84.104 107.464,84.000 107.059,84.000 106.967 C 84.000 106.516,52.136 106.824,51.680 107.280 M119.043 107.433 C 118.655 108.445,118.760 108.608,119.313 107.851 C 119.796 107.191,121.634 107.157,150.413 107.275 C 167.236 107.344,180.010 107.283,178.800 107.140 C 173.430 106.504,119.297 106.769,119.043 107.433 M255.862 107.531 C 254.866 108.632,254.837 268.175,255.833 268.557 C 256.809 268.932,257.080 268.822,256.300 268.368 C 255.184 267.718,255.215 108.872,256.331 107.862 C 257.425 106.872,344.382 106.840,345.371 107.829 C 346.192 108.650,346.331 132.709,345.520 133.520 C 345.156 133.884,338.364 134.000,317.400 134.000 C 296.436 134.000,289.644 134.116,289.280 134.480 C 288.589 135.171,288.589 170.429,289.280 171.120 C 289.643 171.483,296.036 171.600,315.600 171.600 C 335.164 171.600,341.557 171.717,341.920 172.080 C 342.607 172.767,342.607 197.633,341.920 198.320 C 341.557 198.683,335.164 198.800,315.600 198.800 C 296.036 198.800,289.643 198.917,289.280 199.280 C 288.540 200.020,288.593 240.930,289.335 241.546 C 289.948 242.055,348.571 242.411,348.063 241.903 C 347.899 241.739,334.633 241.559,318.583 241.503 L 289.400 241.400 289.400 220.400 L 289.400 199.400 315.372 199.297 C 338.840 199.204,341.414 199.131,342.072 198.535 C 343.193 197.520,343.193 172.880,342.072 171.865 C 341.414 171.269,338.840 171.196,315.372 171.103 L 289.400 171.000 289.400 152.800 L 289.400 134.600 317.515 134.400 C 341.923 134.226,345.679 134.121,346.009 133.600 C 346.723 132.469,346.503 108.160,345.771 107.429 C 344.722 106.379,256.814 106.480,255.862 107.531 M182.105 107.887 C 182.714 107.979,183.614 107.977,184.105 107.882 C 184.597 107.787,184.100 107.711,183.000 107.714 C 181.900 107.717,181.497 107.795,182.105 107.887 M187.400 108.609 C 189.922 109.310,190.630 109.305,188.800 108.600 C 188.030 108.303,186.950 108.059,186.400 108.057 C 185.821 108.055,186.242 108.288,187.400 108.609 M192.796 109.984 C 194.003 110.401,195.046 110.687,195.112 110.621 C 195.319 110.414,192.022 109.199,191.292 109.213 C 190.911 109.220,191.588 109.567,192.796 109.984 M197.000 111.600 C 198.999 112.619,199.339 112.619,197.800 111.600 C 197.140 111.163,196.337 110.804,196.015 110.803 C 195.694 110.801,196.137 111.160,197.000 111.600 M200.509 113.200 C 201.069 113.640,201.678 113.996,201.863 113.991 C 202.300 113.980,200.313 112.421,199.846 112.409 C 199.651 112.404,199.950 112.760,200.509 113.200 M204.000 115.322 C 204.000 115.415,204.755 116.011,205.677 116.646 C 206.599 117.281,208.526 118.970,209.960 120.400 C 211.393 121.830,212.213 122.554,211.783 122.010 C 210.519 120.410,207.497 117.475,206.200 116.587 C 204.462 115.397,204.000 115.132,204.000 115.322 M212.400 123.360 C 212.400 123.505,213.120 124.534,214.000 125.648 C 214.880 126.761,215.600 127.904,215.600 128.187 C 215.600 128.470,215.865 128.922,216.189 129.191 C 216.669 129.589,216.657 129.431,216.125 128.340 C 215.455 126.969,212.400 122.883,212.400 123.360 M217.203 131.206 C 217.204 131.533,217.563 132.340,218.000 133.000 C 219.028 134.552,219.028 134.022,218.000 132.104 C 217.560 131.284,217.201 130.879,217.203 131.206 M151.861 131.500 C 151.758 131.665,154.043 131.753,156.937 131.696 C 166.505 131.507,167.504 131.358,159.724 131.278 C 155.502 131.235,151.963 131.335,151.861 131.500 M169.200 131.955 C 174.213 132.832,174.249 132.836,173.228 132.394 C 172.694 132.162,171.164 131.898,169.828 131.806 C 167.672 131.659,167.602 131.675,169.200 131.955 M176.976 133.813 C 177.404 134.136,177.933 134.400,178.153 134.400 C 178.373 134.400,178.204 134.136,177.776 133.813 C 177.349 133.490,176.820 133.225,176.600 133.225 C 176.380 133.225,176.549 133.490,176.976 133.813 M181.095 136.300 C 182.419 137.345,184.198 139.251,185.047 140.536 C 185.897 141.820,186.743 142.965,186.929 143.080 C 187.302 143.310,185.474 140.307,184.393 138.913 C 183.611 137.905,179.401 134.400,178.971 134.400 C 178.816 134.400,179.772 135.255,181.095 136.300 M219.656 136.945 C 219.939 137.575,220.242 137.873,220.331 137.606 C 220.420 137.340,220.189 136.824,219.818 136.461 C 219.186 135.842,219.176 135.873,219.656 136.945 M220.991 141.400 C 221.160 141.840,221.454 142.740,221.643 143.400 C 221.950 144.475,221.968 144.437,221.808 143.035 C 221.709 142.174,221.416 141.274,221.156 141.035 C 220.798 140.706,220.758 140.796,220.991 141.400 M187.600 145.047 C 187.600 145.267,187.864 145.796,188.187 146.224 C 188.510 146.651,188.775 146.820,188.775 146.600 C 188.775 146.380,188.510 145.851,188.187 145.424 C 187.864 144.996,187.600 144.827,187.600 145.047 M189.234 149.600 C 189.237 150.339,190.322 152.777,190.368 152.146 C 190.385 151.896,190.137 151.086,189.816 150.346 C 189.494 149.606,189.232 149.270,189.234 149.600 M223.301 150.600 C 223.305 151.480,223.387 151.793,223.483 151.295 C 223.579 150.798,223.575 150.078,223.475 149.695 C 223.375 149.313,223.296 149.720,223.301 150.600 M223.818 154.800 C 223.918 155.790,224.168 157.410,224.374 158.400 L 224.748 160.200 224.597 158.400 C 224.514 157.410,224.264 155.790,224.042 154.800 L 223.637 153.000 223.818 154.800 M190.895 157.000 C 190.895 157.660,191.032 158.740,191.200 159.400 L 191.505 160.600 191.505 159.400 C 191.505 158.740,191.368 157.660,191.200 157.000 L 190.895 155.800 190.895 157.000 M191.714 162.600 C 191.717 163.700,191.795 164.103,191.887 163.495 C 191.979 162.886,191.977 161.986,191.882 161.495 C 191.787 161.003,191.711 161.500,191.714 162.600 M224.942 165.400 C 224.941 167.380,225.008 168.240,225.092 167.312 C 225.176 166.384,225.177 164.764,225.095 163.712 C 225.012 162.660,224.943 163.420,224.942 165.400 M192.142 169.000 C 192.141 170.980,192.208 171.840,192.292 170.912 C 192.376 169.984,192.377 168.364,192.295 167.312 C 192.212 166.260,192.143 167.020,192.142 169.000 M225.382 185.800 C 225.382 194.600,225.435 198.143,225.500 193.673 C 225.564 189.204,225.564 182.004,225.499 177.673 C 225.435 173.343,225.382 177.000,225.382 185.800 M192.150 205.000 C 192.151 207.420,192.216 208.358,192.296 207.085 C 192.376 205.812,192.375 203.832,192.294 202.685 C 192.214 201.538,192.149 202.580,192.150 205.000 M224.937 205.400 C 224.939 207.160,225.009 207.830,225.093 206.889 C 225.178 205.949,225.177 204.509,225.091 203.689 C 225.005 202.870,224.936 203.640,224.937 205.400 M191.724 211.800 C 191.726 213.120,191.801 213.612,191.890 212.893 C 191.979 212.174,191.977 211.094,191.886 210.493 C 191.795 209.892,191.722 210.480,191.724 211.800 M224.305 213.600 C 223.847 216.664,223.587 219.019,223.752 218.600 C 224.234 217.378,224.859 213.654,224.727 212.797 C 224.614 212.065,224.502 212.279,224.305 213.600 M191.033 216.433 C 190.883 217.566,190.841 218.574,190.939 218.672 C 191.037 218.771,191.245 217.928,191.400 216.800 C 191.555 215.672,191.598 214.664,191.494 214.561 C 191.391 214.458,191.184 215.300,191.033 216.433 M190.493 221.200 C 190.493 221.970,190.575 222.285,190.676 221.900 C 190.776 221.515,190.776 220.885,190.676 220.500 C 190.575 220.115,190.493 220.430,190.493 221.200 M223.293 222.000 C 223.293 222.770,223.375 223.085,223.476 222.700 C 223.576 222.315,223.576 221.685,223.476 221.300 C 223.375 220.915,223.293 221.230,223.293 222.000 M189.636 224.436 C 188.996 226.574,189.310 226.889,190.000 224.800 C 190.291 223.918,190.439 223.106,190.329 222.995 C 190.218 222.885,189.907 223.534,189.636 224.436 M222.629 224.629 C 222.481 225.215,222.451 225.784,222.561 225.894 C 222.671 226.004,222.881 225.615,223.029 225.029 C 223.176 224.442,223.206 223.873,223.096 223.763 C 222.986 223.653,222.776 224.042,222.629 224.629 M221.000 231.600 C 220.850 232.073,220.817 232.550,220.927 232.660 C 221.037 232.770,221.250 232.473,221.400 232.000 C 221.550 231.527,221.583 231.050,221.473 230.940 C 221.363 230.830,221.150 231.127,221.000 231.600 M186.246 233.986 C 185.651 235.080,184.251 237.016,183.136 238.288 L 181.109 240.600 183.281 238.360 C 185.346 236.231,187.865 232.532,187.500 232.167 C 187.406 232.073,186.842 232.891,186.246 233.986 M219.500 236.900 C 218.551 239.216,218.615 239.732,219.609 237.785 C 220.054 236.913,220.369 235.973,220.309 235.695 C 220.249 235.418,219.885 235.960,219.500 236.900 M217.835 241.332 C 217.417 242.249,216.734 243.697,216.318 244.548 C 215.903 245.399,215.624 246.157,215.699 246.232 C 215.843 246.376,216.555 245.034,218.007 241.879 C 218.494 240.823,218.825 239.892,218.744 239.811 C 218.663 239.730,218.254 240.414,217.835 241.332 M175.400 242.822 C 174.520 243.238,174.005 243.584,174.256 243.590 C 174.507 243.595,175.497 243.244,176.456 242.809 C 177.415 242.374,177.930 242.028,177.600 242.041 C 177.270 242.054,176.280 242.405,175.400 242.822 M348.578 255.400 C 348.579 262.440,348.633 265.264,348.699 261.675 C 348.766 258.086,348.766 252.326,348.699 248.875 C 348.633 245.424,348.578 248.360,348.578 255.400 M151.632 243.420 C 151.542 244.614,152.644 244.800,159.580 244.760 C 163.441 244.738,167.050 244.576,167.600 244.400 C 168.177 244.215,165.099 244.063,160.333 244.040 C 154.125 244.010,152.016 243.876,151.865 243.500 C 151.754 243.225,151.649 243.189,151.632 243.420 M214.404 248.100 C 211.390 253.093,207.485 257.311,203.253 260.142 C 201.657 261.210,200.438 262.171,200.544 262.277 C 200.706 262.439,202.941 261.065,203.600 260.398 C 203.710 260.286,204.520 259.668,205.400 259.023 C 208.744 256.571,216.760 246.800,215.427 246.800 C 215.296 246.800,214.835 247.385,214.404 248.100 M194.224 265.013 C 193.796 265.336,193.627 265.600,193.847 265.600 C 194.067 265.600,194.596 265.336,195.024 265.013 C 195.451 264.690,195.620 264.425,195.400 264.425 C 195.180 264.425,194.651 264.690,194.224 265.013 M184.900 267.476 C 185.285 267.576,185.915 267.576,186.300 267.476 C 186.685 267.375,186.370 267.293,185.600 267.293 C 184.830 267.293,184.515 267.375,184.900 267.476 M182.287 267.847 C 182.151 267.982,180.636 268.241,178.920 268.423 L 175.800 268.752 179.000 268.611 C 181.993 268.479,185.490 267.690,183.367 267.625 C 182.908 267.611,182.422 267.711,182.287 267.847 " stroke="none" fill="#9adbf3" fill-rule="evenodd"></path><path id="path4" d="M51.798 108.100 C 51.679 108.595,51.630 144.910,51.691 188.800 L 51.800 268.600 68.000 268.600 L 84.200 268.600 84.301 188.676 C 84.370 134.037,84.271 108.506,83.987 107.976 C 83.587 107.228,82.997 107.200,67.794 107.200 L 52.015 107.200 51.798 108.100 M119.213 107.976 C 118.929 108.506,118.830 134.037,118.899 188.676 L 119.000 268.600 149.200 268.600 C 176.375 268.600,179.701 268.531,182.400 267.910 C 184.050 267.530,185.940 267.137,186.600 267.036 C 187.260 266.936,186.256 266.930,184.368 267.024 C 182.480 267.118,180.320 267.421,179.568 267.697 C 178.516 268.084,171.418 268.200,148.800 268.200 L 119.400 268.200 119.400 188.200 L 119.400 108.200 152.600 108.200 C 180.609 108.200,185.018 108.126,180.800 107.730 C 171.198 106.827,119.718 107.032,119.213 107.976 M256.262 107.931 C 255.140 109.171,255.254 267.787,256.377 268.388 C 256.905 268.670,271.752 268.771,302.677 268.702 L 348.200 268.600 348.200 255.400 L 348.200 242.200 319.038 242.097 C 298.304 242.024,289.720 241.866,289.338 241.548 C 288.593 240.930,288.537 200.023,289.280 199.280 C 289.643 198.917,296.036 198.800,315.600 198.800 C 335.164 198.800,341.557 198.683,341.920 198.320 C 342.607 197.633,342.607 172.767,341.920 172.080 C 341.557 171.717,335.164 171.600,315.600 171.600 C 296.036 171.600,289.643 171.483,289.280 171.120 C 288.589 170.429,288.589 135.171,289.280 134.480 C 289.644 134.116,296.436 134.000,317.400 134.000 C 338.364 134.000,345.156 133.884,345.520 133.520 C 346.331 132.709,346.192 108.650,345.371 107.829 C 344.322 106.779,257.214 106.880,256.262 107.931 M83.800 188.200 L 83.800 268.200 67.900 268.305 L 52.000 268.409 52.000 188.471 C 52.000 144.505,52.122 108.411,52.271 108.262 C 52.420 108.113,59.575 108.038,68.171 108.095 L 83.800 108.200 83.800 188.200 M345.112 120.000 C 345.174 126.490,345.125 132.205,345.004 132.700 L 344.785 133.600 317.072 133.600 C 296.052 133.600,289.244 133.716,288.880 134.080 C 288.520 134.440,288.400 139.211,288.400 153.090 L 288.400 171.620 289.426 172.010 C 290.054 172.249,300.448 172.400,316.226 172.400 L 342.000 172.400 342.000 185.200 L 342.000 198.000 316.226 198.000 C 300.448 198.000,290.054 198.151,289.426 198.390 L 288.400 198.780 288.400 220.141 C 288.400 237.543,288.500 241.585,288.938 241.948 C 289.320 242.266,297.904 242.424,318.638 242.497 L 347.800 242.600 347.906 255.502 L 348.011 268.403 302.306 268.302 L 256.600 268.200 256.497 188.600 C 256.441 144.820,256.481 108.774,256.586 108.498 C 256.737 108.099,265.809 108.017,300.888 108.098 L 345.000 108.200 345.112 120.000 M186.800 108.962 C 187.350 109.254,188.774 109.617,189.964 109.769 C 191.155 109.920,192.500 110.305,192.953 110.622 C 193.407 110.940,194.026 111.200,194.329 111.200 C 194.631 111.200,195.446 111.459,196.140 111.775 C 196.833 112.091,198.030 112.638,198.800 112.989 C 200.750 113.880,202.506 114.858,203.073 115.368 C 203.337 115.606,204.208 116.250,205.009 116.800 C 207.341 118.400,211.024 122.198,212.666 124.695 C 213.500 125.963,214.411 127.238,214.691 127.529 C 214.971 127.819,215.200 128.286,215.200 128.567 C 215.200 128.847,215.560 129.402,216.000 129.800 C 216.440 130.198,216.801 130.901,216.803 131.362 C 216.804 131.823,217.163 132.740,217.600 133.400 C 218.037 134.060,218.396 134.850,218.397 135.156 C 218.399 135.462,218.738 136.452,219.151 137.356 C 219.894 138.984,220.501 141.014,221.225 144.300 C 221.431 145.235,221.790 146.855,222.023 147.900 C 222.836 151.554,223.150 153.429,223.583 157.200 C 223.823 159.290,224.173 161.810,224.360 162.800 L 224.700 164.600 224.748 162.800 C 224.774 161.810,224.599 159.920,224.358 158.600 C 224.118 157.280,223.694 154.490,223.417 152.400 C 222.888 148.415,221.902 144.038,220.959 141.492 C 220.651 140.662,220.400 139.632,220.400 139.203 C 220.400 138.773,220.019 137.562,219.552 136.511 C 215.762 127.966,215.564 127.587,213.746 125.333 C 213.005 124.416,212.400 123.512,212.400 123.324 C 212.400 121.919,203.318 114.424,199.600 112.761 C 199.050 112.515,198.288 112.154,197.907 111.958 C 196.318 111.142,192.798 109.934,189.845 109.193 C 186.201 108.277,185.393 108.216,186.800 108.962 M151.700 131.245 C 150.764 132.209,150.992 244.088,151.931 244.938 C 152.764 245.691,165.228 245.931,167.440 245.236 C 168.078 245.036,170.280 244.647,172.334 244.373 C 174.388 244.099,176.280 243.663,176.538 243.405 C 176.797 243.146,177.495 242.813,178.090 242.663 C 181.213 241.880,185.661 237.467,187.630 233.200 C 187.883 232.650,188.431 231.460,188.846 230.556 C 189.260 229.652,189.600 228.521,189.600 228.042 C 189.600 227.563,189.855 226.773,190.168 226.286 C 190.480 225.799,190.933 223.736,191.176 221.701 C 191.418 219.667,191.780 217.597,191.980 217.101 C 193.607 213.072,193.472 163.930,191.815 157.200 C 191.518 155.990,191.157 154.027,191.015 152.837 C 190.872 151.648,190.520 150.208,190.231 149.637 C 189.943 149.067,189.588 147.943,189.443 147.140 C 189.298 146.337,188.914 145.460,188.589 145.191 C 188.265 144.922,188.000 144.388,188.000 144.005 C 188.000 143.622,187.665 142.879,187.255 142.354 C 186.845 141.829,186.396 141.037,186.257 140.593 C 185.492 138.144,177.997 132.456,175.480 132.413 C 175.084 132.406,174.184 132.093,173.480 131.717 C 171.777 130.809,152.528 130.392,151.700 131.245 M173.398 132.354 C 180.304 134.137,184.091 137.312,187.616 144.277 C 188.485 145.995,189.197 147.657,189.198 147.972 C 189.199 148.286,189.545 149.636,189.968 150.972 C 192.358 158.531,193.395 203.999,191.465 216.600 C 188.568 235.515,183.324 242.551,171.000 244.061 C 165.457 244.741,152.864 244.951,152.171 244.376 C 151.544 243.855,151.275 132.069,151.900 131.423 C 152.569 130.731,170.040 131.487,173.398 132.354 M224.983 185.600 C 224.983 194.950,225.036 198.775,225.100 194.100 C 225.164 189.425,225.164 181.775,225.100 177.100 C 225.036 172.425,224.983 176.250,224.983 185.600 M224.330 209.000 C 224.190 209.880,223.868 212.490,223.615 214.800 C 223.057 219.910,222.182 224.941,221.146 229.000 C 220.921 229.880,220.551 231.500,220.324 232.600 C 220.097 233.700,219.571 235.340,219.155 236.244 C 218.740 237.148,218.400 238.214,218.400 238.612 C 218.400 239.011,218.132 239.633,217.805 239.995 C 217.477 240.357,217.100 241.271,216.967 242.026 L 216.724 243.400 217.541 241.800 C 219.094 238.759,220.757 233.499,221.840 228.200 C 222.155 226.660,222.584 224.860,222.794 224.200 C 223.003 223.540,223.349 221.380,223.562 219.400 C 223.775 217.420,224.153 214.600,224.401 213.133 C 224.649 211.666,224.792 209.776,224.719 208.933 L 224.587 207.400 224.330 209.000 M215.923 244.465 C 215.626 244.979,215.160 245.760,214.888 246.200 C 214.616 246.640,214.178 247.450,213.915 248.000 C 213.512 248.840,211.280 251.972,210.067 253.400 C 209.545 254.015,204.168 258.909,203.125 259.718 C 202.019 260.577,200.930 261.193,198.000 262.619 C 193.777 264.674,192.589 265.150,191.000 265.427 C 189.179 265.744,187.820 266.353,188.164 266.698 C 188.434 266.968,192.178 265.851,194.800 264.719 C 204.819 260.393,211.183 254.560,216.069 245.227 C 216.881 243.677,216.756 243.026,215.923 244.465 " stroke="none" fill="#acdcf4" fill-rule="evenodd"></path></g></svg>